<?xml version="1.0"?>
<svg xmlns="http://www.w3.org/2000/svg" viewBox="0 0 100 100"><path d="M77.5 28.8L61.2 12.5C60 11.3 59 10.8 58 10.8H22.6c-.9 0-1.7.8-1.7 1.7v75.1c0 .9.8 1.7 1.7 1.7h54.8c.9 0 1.7-.8 1.7-1.7V32c0-1-.5-2.1-1.6-3.2z" fill="#e0e0e0"/><path d="M62.4 28.8h15.1L61.2 12.5v15.1c0 .6.6 1.2 1.2 1.2z" fill="#666766"/><path d="M62.3 8.3c-.5-.5-1.2-.8-1.9-.8H22.6c-2.7 0-5 2.2-5 5v75.1c0 2.7 2.2 5 5 5h54.8c2.7 0 5-2.2 5-5V31.1c0-1.8-.7-3.4-1.9-4.7L62.3 8.3zm-1.1 4.2l16.2 16.2h-15c-.7 0-1.2-.5-1.2-1.2m17.9 60c0 .9-.8 1.7-1.7 1.7H22.6c-.9 0-1.7-.8-1.7-1.7v-75c0-.9.8-1.7 1.7-1.7H58v16.8c0 2.5 2 4.5 4.5 4.5h16.7v55.4z" fill="#010101"/><path d="M34.32 64.83v8.115h-4.254V64.83h-3.128v19.385h3.128v-8.34h4.254v8.34h3.128V64.83zm12.651 14.003v2.452h-4.593c0-1.832 2.226-3.607 4.255-5.636 2.057-2.197 3.128-3.691 3.128-5.719 0-2.367-1.015-5.466-5.213-5.466-3.494 0-5.184 2.395-5.184 5.719v1.127h2.845v-1.127c0-.817-.056-2.845 2.339-2.845 2.282 0 2.254 1.803 2.254 2.845 0 1.55-1.352 2.649-2.254 3.551-2.564 2.648-5.184 4.649-5.184 8.593v1.888h10.397v-5.382zm10.51-6.367c-1.973 0-2.564 1.127-2.733 1.38v-1.634c0-.873.028-1.888.056-2.31.085-.902.169-2.733 2.254-2.733 2.339 0 2.254 2.197 2.254 3.014h2.761c0-2.902-.845-5.719-5.015-5.719-3.691 0-5.043 2.817-5.184 5.212-.085 1.212-.113 3.212-.113 4.987v3.184c0 2.959.648 6.734 5.213 6.734 4.564 0 5.184-4.057 5.184-6.058 0-3.381-1.522-6.057-4.677-6.057zm-.507 9.27c-1.127 0-2.085-.62-2.085-3.213 0-2.169.535-3.465 2.085-3.465 1.577 0 2.085 1.296 2.085 3.465 0 2.593-.874 3.213-2.085 3.213zm12.622-6.537h-2.62L72.02 64.83h-2.959l-5.043 10.369v2.789h5.55v2.761c0 .479-.366.874-.845.874h-1.212v2.592h6.932v-2.592H73.4a.878.878 0 0 1-.873-.874v-2.761h1.888v-2.789h-1.888v-6.227z"/><metadata xmlns:d="https://loading.io/stock/"><d:name>h264</d:name><d:tags>type,postfix,suffix,data,h264,file format</d:tags><d:license>by</d:license><d:slug>7z5d51</d:slug></metadata></svg>